<?xml version="1.0" encoding="utf-8"?>
<!-- Generator: Adobe Illustrator 24.0.0, SVG Export Plug-In . SVG Version: 6.00 Build 0)  -->
<svg version="1.1" id="Layer_1" xmlns="http://www.w3.org/2000/svg" xmlns:xlink="http://www.w3.org/1999/xlink" x="0px" y="0px"
	 viewBox="0 0 526.3 252" style="enable-background:new 0 0 526.3 252;" xml:space="preserve">
<style type="text/css">
	.st0{fill:none;}
	.st1{fill:#000000;}
</style>
<rect x="49" y="22.9" class="st0" width="426.3" height="204.1"/>
<path class="st1" d="M96.8,153.6c2.3,5.6,6.8,10.5,15.6,18.4c1.7,1.4,3.7,3.1,6.1,4.9c0.4,0.4,2.8,2.1,4.8,3.5
	c13-9.1,28.4-23.1,28.4-38.5c0-0.4,0-1,0-1.4V53.9l-18.1,6.6v66.2c0,14.3,0.3,24.9-10.3,38.5c-10.9-13.4-10.8-23.4-10.8-38.5V68
	l-18.1,6.7v49C94.3,135.7,94.1,146.8,96.8,153.6L96.8,153.6L96.8,153.6z"/>
<path class="st1" d="M135.2,176.8L135.2,176.8c-2.3,1.7-5,3.7-8.2,5.8c3.1,2.1,7.3,5,12.2,7.7c1.4-0.8,6.8-3.5,11.8-6.5
	c0.4-0.4,0.9-0.4,1.3-0.6c27.7-17.6,27.3-32.2,27.2-58.7v-81l-23.4,8.5v71.5c0,15.8,0.4,22.7-2.1,30
	C151,162.3,144.6,169.5,135.2,176.8L135.2,176.8L135.2,176.8z"/>
<path class="st1" d="M142.7,192.3c1.5,0.8,3.1,1.6,4.7,2.4c2.3,1.3,4.6,2.6,6.8,3.8c3.3,1.9,6.6,3.6,9.5,5.2l-15.1-14.4
	C147.4,190.2,145.6,191.1,142.7,192.3L142.7,192.3L142.7,192.3z"/>
<path class="st1" d="M151.9,202.4c-7.8-4.4-20.3-11.6-31.7-19.5l0,0c0,0-4.8-3.3-6.8-4.9l0,0c-5-3.7-9.5-7.6-13.1-11.2
	c-3.9-4.1-6.9-8.5-8.5-13.2c-2.3-7.6-2.1-19.2-2.1-30V76.3l-23.3,8.5v39.9c0,20.9-0.1,33.4,11.2,45.6c2,2.3,8.7,9.8,22.1,17.5
	c-6.3,5.8-12.2,11-17.6,15.8c3.1-1.6,6.2-3.3,9.5-5.2c4.9-2.7,9.4-5.1,13.9-7.6c1.4,0.7,2.8,1.4,4.3,2.1l-23.5,13.6l16.6-3.2
	l20.4-4.9c10.2,3.5,22.5,6.5,36.7,8.2L151.9,202.4L151.9,202.4L151.9,202.4z"/>
<path class="st1" d="M241.1,143.9c0,13-3.1,17.8-13.3,17.8c-10.2,0-13.3-4.9-13.3-17.8v-37.3h-11.9v37.8c0,18.5,8.8,27.6,25.2,27.6
	s25.1-9.2,25.1-27.6v-37.8h-11.8L241.1,143.9L241.1,143.9L241.1,143.9z M288.9,120.9c-5.4,0-10.7,2.1-15.9,5.1v-3.9h-10.9v48.5h11.3
	v-36.8c5.2-2.1,9.5-3.3,12.7-3.3c5.6,0,6.8,2.4,6.8,9.4v30.8h11.5v-30.8C304.5,129,302.6,121,288.9,120.9L288.9,120.9L288.9,120.9z
	 M354.2,109.9h-11.3v12.3h-9.1v8.4l9.1,0.8v26.7c0,10.2,3.8,13.9,13.4,13.9c4.3,0,8.5-1.1,9.8-1.4v-7.9c-1.4,0.2-4.9,0.4-7.4,0.4
	c-4.1,0-4.4-0.9-4.4-5.3v-26.6h11.8v-9.2h-11.8L354.2,109.9L354.2,109.9L354.2,109.9z M314.3,170.7h11.5v-48.5h-11.5V170.7
	L314.3,170.7z M445.4,130.7c2.7,0,6.8,0.3,13,0.7v-8.6c-2.3-0.6-7.6-1.8-15-1.8c-14,0-20.4,7.6-20.4,22.4v6.1
	c0,14.6,6.5,22.5,20.4,22.5c7.5,0,12.8-1.2,15-1.8v-8.6c-6.1,0.4-10.3,0.8-13,0.8c-7,0-11-2.4-11-12.9v-6.1
	C434.4,132.8,438.3,130.6,445.4,130.7L445.4,130.7L445.4,130.7z M393.7,120.9c-14.5,0-21.9,7.9-21.9,24.2v3
	c0,17.1,6.2,23.8,23.8,23.8c8.1,0,14.4-1.2,18-2.1v-8.5c-6.4,0.5-12.4,1.2-17.5,1.2c-11.9,0-13-4.6-13-11.7V150h32.5v-3.8
	C415.6,131.6,409.9,121,393.7,120.9L393.7,120.9L393.7,120.9z M404.1,142.5h-21.1v-0.7c0-5.5,1.4-11.8,10.5-11.8
	c9.2,0,10.5,6.1,10.5,11.8L404.1,142.5L404.1,142.5L404.1,142.5z M314.1,114.7h11.8v-11h-11.8V114.7L314.1,114.7z"/>
</svg>